<?xml version="1.0" encoding="UTF-8"?>
<svg id="svg2" xmlns="http://www.w3.org/2000/svg" xmlns:svg="http://www.w3.org/2000/svg" xmlns:sodipodi="http://sodipodi.sourceforge.net/DTD/sodipodi-0.dtd" xmlns:inkscape="http://www.inkscape.org/namespaces/inkscape" version="1.1" viewBox="0 0 832 832">
  <defs>
    <style>
      .cls-1 {
        stroke-width: 7.5px;
      }

      .cls-1, .cls-2 {
        fill: #fff;
        isolation: isolate;
        stroke: #fff;
        stroke-miterlimit: 10;
      }

      .cls-3 {
        fill: #37aae1;
        stroke-width: 0px;
      }

      .cls-2 {
        stroke-width: 15px;
      }
    </style>
  </defs>
  <g id="g8" inkscape:groupmode="layer" inkscape:label="logo-mini">
    <path id="path10" class="cls-3" d="M183,832h466c101.1,0,183-81.9,183-183V183C832,81.9,750.1,0,649,0H183C81.9,0,0,81.9,0,183v466c0,101.1,81.9,183,183,183Z"/>
    <g>
      <path class="cls-2" d="M696,297.3c-24.8-24.8-48-50.3-74.3-73.5-25.5-22.5-57-30-90-18s-28.5,4.5-42-5.3c-44.3-30.8-93.8-38.3-145.5-33.8-142.5,12.8-231,188.3-155.3,309.8,6,9.8,12,22.5,27,15,14.3-8.3,10.5-20.3,4.5-32.3-12.8-24-22.5-49.5-23.3-76.5-1.5-66,26.3-118.5,80.3-154.5,56.3-36.8,117.8-36,178.5-7.5,26.3,12,27,19.5,6,40.5l-130.5,130.5c-66,66-132.8,132.8-198.8,198.8-8.3,8.3-15.8,17.3-6,27.8s21,6.8,30.8-2.3c11.3-11.3,22.5-22.5,34.5-33.8,28.5-28.5,60-34.5,95.3-17.3,1.5,0,3,2.3,4.5,2.3,27.8,6.8,40.5,31.5,58.5,49.5s5.3,12-2.3,16.5c-9,5.3-10.5,14.3-6.8,23.3s12.8,9.8,20.3,9.8h85.5c12.8,0,30,1.5,29.3-18,0-18.8-16.5-19.5-30-18-26.3,3-45-7.5-59.3-27.8-3.8-4.5-10.5-9-8.3-15.8,3-7.5,10.5-5.3,16.5-5.3,35.3-3,68.3-14.3,97.5-34.5,42.8-30.8,72-72,87-122.3,3-11.3,7.5-27-9.8-31.5-17.3-5.3-23.3,8.3-27,21.8,0,2.3,0,5.3-1.5,8.3-35.3,114-159.8,156-259.5,99.8-15.8-9-14.3-17.3-3-28.5,16.5-16.5,30-1.5,43.5,3.8,63.8,24.8,144-9.8,164.3-70.5,3-9,6-18-2.3-27-24.8,50.3-58.5,75.8-96,71.3,16.5-15.8,37.5-26.3,44.3-49.5-12,0-18,7.5-24.8,12.8-18.8,13.5-39,21.8-62.3,22.5-6.8,0-15.8,3-18.8-6-2.3-6.8,4.5-11.3,9-15,30.8-30.8,61.5-62.3,93-93,18.8-18.8,38.3-18.8,57.8,0,47.3,47.3,98.3,48.8,146.3,3.8,15-14.3,30-24.8,51.8-23.3,6.8,0,15,0,18.8-6.8,4.5-9-1.5-15.8-7.5-21h0v.8h0ZM636.7,296.6c-6,26.3-72.8,56.3-99,44.3-20.3-9-33-27-48-42s-3.8-7.5-2.3-12c6.8-18.8,51-48.8,72.8-48.8,36.8,0,52.5,30,74.3,51,1.5,1.5,2.3,5.3,1.5,7.5h.8,0Z"/>
      <path class="cls-1" d="M572.2,307.1c-11.3,0-17.3-6-18-15.8,0-9,5.3-15,14.3-15.8,10.5-1.5,17.3,4.5,18,14.3,0,9.8-6,15.8-14.3,18h0v-.8h0Z"/>
    </g>
  </g>
</svg>