<?xml version="1.0" encoding="utf-8"?>
<!-- Generator: Adobe Illustrator 28.3.0, SVG Export Plug-In . SVG Version: 6.00 Build 0)  -->
<svg version="1.1"
	 id="svg2" xmlns:svg="http://www.w3.org/2000/svg" xmlns:inkscape="http://www.inkscape.org/namespaces/inkscape" xmlns:sodipodi="http://sodipodi.sourceforge.net/DTD/sodipodi-0.dtd"
	 xmlns="http://www.w3.org/2000/svg" xmlns:xlink="http://www.w3.org/1999/xlink" x="0px" y="0px" viewBox="0 0 16 16"
	 style="enable-background:new 0 0 16 16;" xml:space="preserve">
<style type="text/css">
	.st0{clip-path:url(#SVGID_00000074429250751370738810000006169020029140328836_);}
	.st1{opacity:0.8;clip-path:url(#SVGID_00000012440890664959941440000007827698314189698441_);}
	.st2{fill:#37AAE1;}
	.st3{opacity:0.7;clip-path:url(#SVGID_00000043447789453471601930000015697873205010081704_);}
</style>
<sodipodi:namedview  bordercolor="#000000" borderopacity="0.25" id="namedview4" inkscape:deskcolor="#d1d1d1" inkscape:pagecheckerboard="0" inkscape:pageopacity="0.0" inkscape:showpageshadow="2" pagecolor="#ffffff">
	</sodipodi:namedview>
<g id="g8" transform="matrix(1.3333333,0,0,-1.3333333,0,264.56667)" inkscape:groupmode="layer" inkscape:label="icon-inverse">
	<g id="g10">
		<g>
			<defs>
				<rect id="SVGID_1_" x="-2" y="184.4" width="16" height="16"/>
			</defs>
			<clipPath id="SVGID_00000146480724983556887120000002745629136229750663_">
				<use xlink:href="#SVGID_1_"  style="overflow:visible;"/>
			</clipPath>
			<g id="g12" style="clip-path:url(#SVGID_00000146480724983556887120000002745629136229750663_);">
				<g id="g18">
					<g id="g20">
					</g>
					<g id="g40">
						<g>
							<defs>
								<rect id="SVGID_00000090277243405230461910000008661770233181396148_" x="0.2" y="187.2" width="11.5" height="12.1"/>
							</defs>
							<clipPath id="SVGID_00000107559367177561926920000011336072476741708727_">
								<use xlink:href="#SVGID_00000090277243405230461910000008661770233181396148_"  style="overflow:visible;"/>
							</clipPath>
							<g id="g38" style="opacity:0.8;clip-path:url(#SVGID_00000107559367177561926920000011336072476741708727_);">
								<g id="g28" transform="translate(118.3648,138.381)">
									<path id="path26" class="st2" d="M-111.2,56.4l0-0.6c-0.4-0.5-1.7-0.6-2.3,0l0,0.6C-112.9,55.8-111.5,56-111.2,56.4
										 M-111.3,58.7l0-0.5c-0.4-0.5-1.7-0.6-2.3,0l0,0.5l-0.7-0.4c-0.1,0-0.1,0-0.2,0c-0.6,0-1.2-0.2-1.2-0.5
										c0-0.1,0-0.1,0.1-0.2c0.7-0.5,1.9-0.4,2.2,0.1l0-0.6c-0.4-0.5-1.7-0.6-2.3,0l0,0.4l-0.9-0.5l4.2-2.4l4.2,2.4l-1,0.5l0-0.4
										c-0.4-0.5-1.7-0.6-2.3,0l0,0.6c0.6-0.6,2-0.4,2.3,0c0,0,0,0,0,0c0,0,0,0.1,0,0.1l0,0c0,0.3-0.5,0.5-1.2,0.5
										c-0.1,0-0.2,0-0.2,0L-111.3,58.7z M-112.4,59.3c-0.6,0-1.2-0.2-1.2-0.5c0-0.1,0-0.1,0.1-0.2l0,0c0.7-0.5,2-0.4,2.3,0.1v0
										c0,0,0,0.1,0,0.1l0,0C-111.2,59.1-111.8,59.3-112.4,59.3z"/>
								</g>
								<g id="g32" transform="translate(28.0814,133.9058)">
									<path id="path30" class="st2" d="M-26.4,60.6l3.9-2.3v-3.5l-3.9,2.2L-26.4,60.6z"/>
								</g>
								<g id="g36" transform="translate(169.7078,135.2723)">
									<path id="path34" class="st2" d="M-159.4,59.3l-3.9-2.4v-3.5l3.9,2.2V59.3z"/>
								</g>
							</g>
						</g>
					</g>
				</g>
				<g id="g42">
					<g id="g44">
					</g>
					<g id="g56">
						<g>
							<defs>
								<rect id="SVGID_00000147911294870004607630000004482428380900833951_" x="0.3" y="186.3" width="11.5" height="6.8"/>
							</defs>
							<clipPath id="SVGID_00000093855226490884512610000010926340874858476206_">
								<use xlink:href="#SVGID_00000147911294870004607630000004482428380900833951_"  style="overflow:visible;"/>
							</clipPath>
							<g id="g54" style="opacity:0.7;clip-path:url(#SVGID_00000093855226490884512610000010926340874858476206_);">
								<g id="g52" transform="translate(95.0245,12.7196)">
									<path id="path50" class="st2" d="M-89.3,174.5l-3.9,2.3c-0.2,0.1-0.2,0.2,0,0.3l3.9,2.3c0.2,0.1,0.4,0.1,0.6,0l3.9-2.3
										c0.2-0.1,0.2-0.2,0-0.3l-3.9-2.3C-88.9,174.4-89.1,174.4-89.3,174.5"/>
								</g>
							</g>
						</g>
					</g>
				</g>
			</g>
		</g>
	</g>
</g>
</svg>
