<svg id="Calque_2" data-name="Calque 2" xmlns="http://www.w3.org/2000/svg" version="1.1" viewBox="0 0 24 24">
  <g id="g38" opacity=".8">
    <g id="g28">
      <path id="path26" d="M14.4,7.2v1.3c-.9,1.1-3.6,1.3-4.9,0v-1.3c1.3,1.3,4.3.9,4.9,0M14.2,2.3v1.1c-.9,1.1-3.6,1.3-4.9,0v-1.1l-1.5.9h-.4c-1.3,0-2.6.4-2.6,1.1s0,.2.2.4c1.5,1.1,4.1.9,4.7-.2v1.3c-.9,1.1-3.6,1.3-4.9,0v-.9l-1.9,1.1,9,5.1,9-5.1-2.1-1.1v.9c-.9,1.1-3.6,1.3-4.9,0v-1.3c1.3,1.3,4.3.9,4.9,0h0v-.2h0c0-.6-1.1-1.1-2.6-1.1h-.4l-1.5-.9ZM11.9,1c-1.3,0-2.6.4-2.6,1.1s0,.2.2.4h0c1.5,1.1,4.3.9,4.9-.2h0v-.2h0c0-.6-1.3-1.1-2.6-1.1Z" fill="#3ba9e0" stroke-width="0"/>
    </g>
    <g id="g32">
      <path id="path30" d="M2.7,7.8l8.3,4.9v7.5L2.7,15.5v-7.7Z" fill="#3ba9e0" stroke-width="0"/>
    </g>
    <g id="g36">
      <path id="path34" d="M21.1,7.6l-8.3,5.1v7.5l8.3-4.7v-7.9Z" fill="#3ba9e0" stroke-width="0"/>
    </g>
  </g>
  <g id="g54" opacity=".7">
    <g id="g52">
      <path id="path50" d="M11.4,23.3l-8.3-4.9c-.4-.2-.4-.4,0-.6l8.3-4.9c.4-.2.9-.2,1.3,0l8.3,4.9c.4.2.4.4,0,.6l-8.3,4.9c-.4.2-.9.2-1.3,0" fill="#3ba9e0" stroke-width="0"/>
    </g>
  </g>
</svg>