<?xml version="1.0" encoding="UTF-8"?>
<svg id="Calque_1" data-name="Calque 1" xmlns="http://www.w3.org/2000/svg" version="1.1" viewBox="0 0 559.7 75.6">
  <defs>
    <style>
      .cls-1 {
        opacity: .5;
      }

      .cls-1, .cls-2, .cls-3 {
        stroke-width: 0px;
      }

      .cls-1, .cls-4, .cls-5 {
        isolation: isolate;
      }

      .cls-1, .cls-4, .cls-5, .cls-3 {
        fill: #39a7df;
      }

      .cls-2 {
        fill: #000;
      }

      .cls-4, .cls-5 {
        stroke: #39a7df;
        stroke-miterlimit: 10;
      }

      .cls-5 {
        stroke-width: 2px;
      }
    </style>
  </defs>
  <g>
    <path class="cls-2" d="M140.2,37c1.7,2.2,2.5,4.6,2.5,7.4,0,4.1-1.4,7.3-4.2,9.6-2.8,2.3-6.8,3.5-11.8,3.5h-23.8V9.5h23c4.9,0,8.7,1.1,11.5,3.3,2.8,2.2,4.2,5.2,4.2,9.2s-.7,5.2-2.2,7c-1.5,1.9-3.4,3.2-5.9,3.8,2.8.6,5,2,6.7,4.2ZM116.2,28.5h6.7c3.4,0,5-1.4,5-4.2s-1.7-4.3-5-4.3h-6.7v8.4h0ZM129,42.5c0-1.5-.4-2.6-1.3-3.3s-2.1-1.2-3.8-1.2h-7.7v8.7h7.8c3.4,0,5-1.4,5-4.2Z"/>
    <path class="cls-2" d="M167.4,20.9c2.1-1.3,4.4-1.9,6.9-1.9v14.2h-3.7c-2.9,0-5.1.6-6.5,1.7-1.4,1.1-2.1,3.1-2.1,5.9v16.7h-13.3V19.3h13.3v6.7c1.5-2.2,3.3-3.9,5.4-5.2h0Z"/>
    <path class="cls-2" d="M180,13.8c-1.4-1.3-2.1-2.9-2.1-4.9s.7-3.7,2.1-5c1.4-1.3,3.3-2,5.7-2s4.2.7,5.6,2c1.4,1.3,2.1,3,2.1,5s-.7,3.6-2.1,4.9-3.3,1.9-5.6,1.9-4.3-.6-5.7-1.9ZM192.3,19.3v38.2h-13.3V19.3s13.3,0,13.3,0Z"/>
    <path class="cls-2" d="M200.2,28c1.6-2.9,3.9-5.2,6.8-6.8,2.9-1.6,6.3-2.4,10-2.4s8.9,1.3,12.2,4,5.4,6.4,6.4,11.1h-14.2c-.8-2.5-2.4-3.7-4.8-3.7s-3,.7-4,2.1c-1,1.4-1.5,3.4-1.5,6.1s.5,4.7,1.5,6.1,2.3,2.1,4,2.1,4-1.2,4.8-3.7h14.2c-1,4.7-3.1,8.4-6.4,11.1-3.3,2.7-7.4,4-12.2,4s-7.1-.8-10-2.4-5.2-3.9-6.8-6.8-2.4-6.4-2.4-10.4.8-7.4,2.4-10.3h0Z"/>
    <path class="cls-2" d="M265.1,57.5l-10.5-15.7v15.7h-13.3V7.1h13.3v27.2l10.5-15h16l-15,19.2,15.3,19h-16.3Z"/>
    <path class="cls-2" d="M326.4,19.3l-24.2,56.3h-14.5l9.1-19.8-15.7-36.5h14.8l8,21.6,7.8-21.6h14.7Z"/>
    <path class="cls-3" d="M350.5,30.4h-6v27.1h-13.4v-27.1h-4.2v-11.1h4.2v-.3c0-4.9,1.4-8.7,4.3-11.3,2.9-2.6,7-3.9,12.4-3.9s1.9,0,2.5,0v11.4h-1.5c-1.5,0-2.5.3-3.2,1s-1.1,1.7-1.2,3.2h6v11.1h.1Z"/>
    <path class="cls-3" d="M356.3,13.8c-1.4-1.3-2.1-2.9-2.1-4.9s.7-3.7,2.1-5,3.3-2,5.7-2,4.2.7,5.6,2,2.1,3,2.1,5-.7,3.6-2.1,4.9-3.3,1.9-5.6,1.9-4.3-.6-5.7-1.9ZM368.6,19.3v38.2h-13.3V19.3s13.3,0,13.3,0Z"/>
    <path class="cls-3" d="M377,28.7c-1.4-1.3-2.1-2.9-2.1-4.9s.7-3.7,2.1-5,3.3-2,5.7-2,4.2.7,5.6,2,2.1,3,2.1,5-.7,3.6-2.1,4.9c-1.4,1.3-3.3,2-5.6,2s-4.3-.6-5.7-1.9h0ZM377,56.1c-1.4-1.3-2.1-2.9-2.1-4.9s.7-3.7,2.1-5,3.3-2,5.7-2,4.2.7,5.6,2,2.1,3,2.1,5-.7,3.6-2.1,4.9-3.3,2-5.6,2-4.3-.6-5.7-1.9h0Z"/>
    <path class="cls-1" d="M396.7,28c1.4-2.9,3.4-5.2,5.9-6.8s5.3-2.4,8.3-2.4,4.6.5,6.6,1.5c1.9,1,3.4,2.4,4.5,4.2V7.1h13.4v50.4h-13.4v-5.3c-1,1.8-2.5,3.2-4.4,4.2s-4.2,1.6-6.7,1.6-5.8-.8-8.3-2.4-4.4-3.9-5.9-6.8c-1.4-3-2.1-6.4-2.1-10.4s.7-7.4,2.1-10.3h0ZM420.1,32.6c-1.3-1.4-3-2.1-4.9-2.1s-3.7.7-5,2.1c-1.3,1.4-2,3.3-2,5.8s.7,4.4,2,5.8,3,2.1,5,2.1,3.6-.7,4.9-2.1,2-3.4,2-5.9-.7-4.4-2-5.8h0Z"/>
    <path class="cls-1" d="M450.5,55.6c-3-1.6-5.4-3.9-7.1-6.8s-2.6-6.4-2.6-10.4.9-7.4,2.6-10.3c1.7-2.9,4.1-5.2,7.1-6.8s6.4-2.4,10.2-2.4,7.2.8,10.2,2.4c3,1.6,5.4,3.9,7.1,6.8,1.7,2.9,2.6,6.4,2.6,10.3s-.9,7.4-2.6,10.4-4.1,5.3-7.2,6.8c-3,1.6-6.5,2.4-10.3,2.4s-7.2-.8-10.2-2.4h.2ZM465.5,44.3c1.2-1.4,1.9-3.4,1.9-6s-.6-4.6-1.9-5.9c-1.2-1.4-2.8-2-4.6-2s-3.3.7-4.6,2c-1.2,1.4-1.8,3.3-1.8,5.9s.6,4.6,1.8,6c1.2,1.4,2.7,2,4.6,2s3.4-.7,4.7-2.1h-.1Z"/>
    <path class="cls-1" d="M486.6,28c1.6-2.9,3.9-5.2,6.8-6.8,2.9-1.6,6.3-2.4,10-2.4s8.9,1.3,12.2,4,5.4,6.4,6.4,11.1h-14.2c-.8-2.5-2.4-3.7-4.8-3.7s-3,.7-4,2.1c-1,1.4-1.5,3.4-1.5,6.1s.5,4.7,1.5,6.1,2.3,2.1,4,2.1,4-1.2,4.8-3.7h14.2c-1,4.7-3.1,8.4-6.4,11.1-3.3,2.7-7.4,4-12.2,4s-7.1-.8-10-2.4-5.2-3.9-6.8-6.8c-1.6-2.9-2.5-6.4-2.5-10.4s.8-7.4,2.5-10.3h0Z"/>
    <path class="cls-1" d="M534.7,56.2c-2.7-1.2-4.8-2.7-6.4-4.8-1.6-2-2.4-4.3-2.6-6.8h12.9c.2,1.2.7,2.2,1.7,2.9s2.1,1,3.5,1,2-.2,2.6-.7,1-1,1-1.8-.5-1.7-1.6-2.1-2.8-1-5.2-1.5c-2.7-.5-5-1.2-6.8-1.8-1.8-.7-3.4-1.8-4.7-3.3s-2-3.6-2-6.3.6-4.3,1.8-6.2c1.2-1.8,3-3.3,5.4-4.4s5.3-1.6,8.6-1.6c5,0,8.9,1.2,11.8,3.7,2.9,2.4,4.5,5.7,5,9.7h-12c-.2-1.2-.8-2.2-1.6-2.8-.8-.7-2-1-3.4-1s-1.9.2-2.5.6c-.6.4-.9,1-.9,1.7s.5,1.6,1.6,2.1c1,.5,2.7,1,5,1.5,2.8.6,5.1,1.2,6.9,2,1.8.7,3.4,1.9,4.8,3.5,1.4,1.6,2.1,3.8,2.1,6.6s-.6,4.2-1.9,6-3.1,3.2-5.5,4.2-5.2,1.5-8.4,1.5-6.5-.6-9.2-1.7v-.2Z"/>
  </g>
  <g>
    <path class="cls-5" d="M77.5,18.6c-3.3-3.3-6.4-6.7-9.9-9.8-3.4-3-7.6-4-12-2.4-2.2.8-3.8.6-5.6-.7C44.1,1.6,37.5.6,30.6,1.2,11.6,2.9-.2,26.3,9.9,42.5c.8,1.3,1.6,3,3.6,2,1.9-1.1,1.4-2.7.6-4.3-1.7-3.2-3-6.6-3.1-10.2-.2-8.8,3.5-15.8,10.7-20.6,7.5-4.9,15.7-4.8,23.8-1,3.5,1.6,3.6,2.6.8,5.4-5.8,5.8-11.6,11.6-17.4,17.4-8.8,8.8-17.7,17.7-26.5,26.5-1.1,1.1-2.1,2.3-.8,3.7,1.3,1.4,2.8.9,4.1-.3,1.5-1.5,3-3,4.6-4.5,3.8-3.8,8-4.6,12.7-2.3.2,0,.4.3.6.3,3.7.9,5.4,4.2,7.8,6.6.9.9.7,1.6-.3,2.2-1.2.7-1.4,1.9-.9,3.1s1.7,1.3,2.7,1.3h11.4c1.7,0,4,.2,3.9-2.4,0-2.5-2.2-2.6-4-2.4-3.5.4-6-1-7.9-3.7-.5-.6-1.4-1.2-1.1-2.1.4-1,1.4-.7,2.2-.7,4.7-.4,9.1-1.9,13-4.6,5.7-4.1,9.6-9.6,11.6-16.3.4-1.5,1-3.6-1.3-4.2-2.3-.7-3.1,1.1-3.6,2.9,0,.3,0,.7-.2,1.1-4.7,15.2-21.3,20.8-34.6,13.3-2.1-1.2-1.9-2.3-.4-3.8,2.2-2.2,4-.2,5.8.5,8.5,3.3,19.2-1.3,21.9-9.4.4-1.2.8-2.4-.3-3.6-3.3,6.7-7.8,10.1-12.8,9.5,2.2-2.1,5-3.5,5.9-6.6-1.6,0-2.4,1-3.3,1.7-2.5,1.8-5.2,2.9-8.3,3-.9,0-2.1.4-2.5-.8-.3-.9.6-1.5,1.2-2,4.1-4.1,8.2-8.3,12.4-12.4,2.5-2.5,5.1-2.5,7.7,0,6.3,6.3,13.1,6.5,19.5.5,2-1.9,4-3.3,6.9-3.1.9,0,2,0,2.5-.9.6-1.2-.2-2.1-1-2.8h0ZM69.6,18.5c-.8,3.5-9.7,7.5-13.2,5.9-2.7-1.2-4.4-3.6-6.4-5.6s-.5-1-.3-1.6c.9-2.5,6.8-6.5,9.7-6.5,4.9,0,7,4,9.9,6.8.2.2.3.7.2,1,0,0,0,0,.1,0Z"/>
    <path class="cls-4" d="M61,19.9c-1.5,0-2.3-.8-2.4-2.1,0-1.2.7-2,1.9-2.1,1.4-.2,2.3.6,2.4,1.9,0,1.3-.8,2.1-1.9,2.4h0Z"/>
  </g>
</svg>