<?xml version="1.0" encoding="UTF-8"?>
<svg xmlns="http://www.w3.org/2000/svg" xmlns:xlink="http://www.w3.org/1999/xlink" version="1.1" viewBox="0 0 160 24">
  <defs>
    <style>
      .cls-1 {
        fill: #001e13;
      }

      .cls-1, .cls-2, .cls-3, .cls-4, .cls-5, .cls-6, .cls-7, .cls-8, .cls-9, .cls-10, .cls-11, .cls-12 {
        stroke-width: 0px;
      }

      .cls-2 {
        opacity: .7;
      }

      .cls-2, .cls-8 {
        fill: #35a8e0;
      }

      .cls-3 {
        fill: url(#Dégradé_sans_nom);
      }

      .cls-4 {
        fill: #002719;
        fill-opacity: .6;
      }

      .cls-5, .cls-9 {
        fill: #000;
      }

      .cls-5, .cls-9, .cls-13, .cls-10, .cls-11 {
        isolation: isolate;
      }

      .cls-5, .cls-9, .cls-10, .cls-11 {
        mix-blend-mode: hard-light;
      }

      .cls-5, .cls-10, .cls-11 {
        fill-opacity: .5;
      }

      .cls-6 {
        fill: url(#Dégradé_sans_nom_6);
      }

      .cls-7 {
        fill: url(#Dégradé_sans_nom_4);
      }

      .cls-14 {
        stroke: url(#Dégradé_sans_nom_8);
      }

      .cls-14, .cls-15, .cls-16 {
        fill: none;
        stroke-opacity: 0;
        stroke-width: 0px;
      }

      .cls-15 {
        stroke: url(#Dégradé_sans_nom_3);
      }

      .cls-16 {
        stroke: url(#Dégradé_sans_nom_5);
      }

      .cls-17 {
        opacity: .8;
      }

      .cls-9 {
        fill-opacity: .2;
      }

      .cls-10 {
        fill: url(#Dégradé_sans_nom_7);
      }

      .cls-11 {
        fill: url(#Dégradé_sans_nom_2);
      }

      .cls-12 {
        fill: #fff;
      }

      .cls-18 {
        display: none;
      }
    </style>
    <radialGradient id="Dégradé_sans_nom" data-name="Dégradé sans nom" cx="-209.1" cy="408.1" fx="-209.1" fy="408.1" r="1" gradientTransform="translate(4957.8 6508.3) rotate(-10) scale(18 -17.8)" gradientUnits="userSpaceOnUse">
      <stop offset="0" stop-color="#00b0bb"/>
      <stop offset="1" stop-color="#00db65"/>
    </radialGradient>
    <linearGradient id="Dégradé_sans_nom_2" data-name="Dégradé sans nom 2" x1="8.3" y1="18.7" x2="2.5" y2="4.8" gradientTransform="translate(0 23.9) scale(1 -1)" gradientUnits="userSpaceOnUse">
      <stop offset="0" stop-color="#18e299"/>
      <stop offset="1" stop-color="#000"/>
    </linearGradient>
    <linearGradient id="Dégradé_sans_nom_3" data-name="Dégradé sans nom 3" x1="7.9" y1="15.9" x2="1.8" y2="5.1" gradientTransform="translate(0 23.9) scale(1 -1)" gradientUnits="userSpaceOnUse">
      <stop offset="0" stop-color="#000"/>
      <stop offset="1" stop-color="#000" stop-opacity="0"/>
    </linearGradient>
    <radialGradient id="Dégradé_sans_nom_4" data-name="Dégradé sans nom 4" cx="-232.9" cy="419.8" fx="-232.9" fy="419.8" r="1" gradientTransform="translate(10922.3 -2403.5) rotate(-75.8) scale(21.6 -23.8)" gradientUnits="userSpaceOnUse">
      <stop offset="0" stop-color="#0bb"/>
      <stop offset=".7" stop-color="#00db65"/>
    </radialGradient>
    <linearGradient id="Dégradé_sans_nom_5" data-name="Dégradé sans nom 5" x1="7.6" y1="18" x2="15.6" y2="7.5" gradientTransform="translate(0 23.9) scale(1 -1)" gradientUnits="userSpaceOnUse">
      <stop offset="0" stop-color="#000"/>
      <stop offset="1" stop-color="#000" stop-opacity="0"/>
    </linearGradient>
    <radialGradient id="Dégradé_sans_nom_6" data-name="Dégradé sans nom 6" cx="-213.7" cy="406.4" fx="-213.7" fy="406.4" r="1" gradientTransform="translate(6174.6 5241.3) rotate(-20.4) scale(18.6 -17.3)" gradientUnits="userSpaceOnUse">
      <stop offset="0" stop-color="#00b0bb"/>
      <stop offset="1" stop-color="#00db65"/>
    </radialGradient>
    <linearGradient id="Dégradé_sans_nom_7" data-name="Dégradé sans nom 7" x1="18.4" y1="9.8" x2="11.6" y2="-.2" gradientTransform="translate(0 23.9) scale(1 -1)" gradientUnits="userSpaceOnUse">
      <stop offset="0" stop-color="#00b1bc"/>
      <stop offset="1" stop-color="#000"/>
    </linearGradient>
    <linearGradient id="Dégradé_sans_nom_8" data-name="Dégradé sans nom 8" x1="16.8" y1="10.9" x2="14.2" y2="0" gradientTransform="translate(0 23.9) scale(1 -1)" gradientUnits="userSpaceOnUse">
      <stop offset="0" stop-color="#000"/>
      <stop offset="1" stop-color="#000" stop-opacity="0"/>
    </linearGradient>
  </defs>
  <g class="cls-13">
    <g id="Calque_1" data-name="Calque 1" class="cls-18">
      <path class="cls-12" d="M8,21.1c-3.1,0-5.7-1.7-7-4.8C-.3,13.1.1,9.2,1.7,5.6c3.1,0,5.7,1.7,7,4.8,1.3,3.2.9,7.1-.8,10.7Z"/>
      <path class="cls-3" d="M8,21.1c-3.1,0-5.7-1.7-7-4.8C-.3,13.1.1,9.2,1.7,5.6c3.1,0,5.7,1.7,7,4.8,1.3,3.2.9,7.1-.8,10.7Z"/>
      <path class="cls-5" d="M8,21.1c-3.1,0-5.7-1.7-7-4.8C-.3,13.1.1,9.2,1.7,5.6c3.1,0,5.7,1.7,7,4.8,1.3,3.2.9,7.1-.8,10.7Z"/>
      <path class="cls-11" d="M8,21.1c-3.1,0-5.7-1.7-7-4.8C-.3,13.1.1,9.2,1.7,5.6c3.1,0,5.7,1.7,7,4.8,1.3,3.2.9,7.1-.8,10.7Z"/>
      <path class="cls-15" d="M7.9,21.1c-3,0-5.7-1.7-6.9-4.8C-.2,13.1.1,9.2,1.8,5.6c3,0,5.7,1.7,6.9,4.8,1.3,3.2.9,7.1-.7,10.6Z"/>
      <path class="cls-12" d="M7.3,21.3c4-1,7.6-3.9,9.3-8,1.7-4.1,1.3-8.6-.8-12.3-4,1-7.6,3.9-9.3,8-1.7,4.1-1.3,8.6.8,12.3Z"/>
      <path class="cls-7" d="M7.3,21.3c4-1,7.6-3.9,9.3-8,1.7-4.1,1.3-8.6-.8-12.3-4,1-7.6,3.9-9.3,8-1.7,4.1-1.3,8.6.8,12.3Z"/>
      <path class="cls-16" d="M16.6,13.2c-1.7,4.1-5.3,7-9.3,8-2.1-3.6-2.5-8.1-.8-12.2,1.7-4.1,5.3-7,9.3-8,2.1,3.6,2.5,8.1.8,12.2Z"/>
      <path class="cls-12" d="M7.2,21.2c2.6,2,6,2.7,9.3,1.6,3.4-1.1,5.9-3.9,7.2-7.2-2.6-2-6-2.7-9.3-1.6-3.4,1.1-5.9,3.9-7.2,7.2Z"/>
      <path class="cls-6" d="M7.2,21.2c2.6,2,6,2.7,9.3,1.6,3.4-1.1,5.9-3.9,7.2-7.2-2.6-2-6-2.7-9.3-1.6-3.4,1.1-5.9,3.9-7.2,7.2Z"/>
      <path class="cls-9" d="M7.2,21.2c2.6,2,6,2.7,9.3,1.6,3.4-1.1,5.9-3.9,7.2-7.2-2.6-2-6-2.7-9.3-1.6-3.4,1.1-5.9,3.9-7.2,7.2Z"/>
      <path class="cls-10" d="M7.2,21.2c2.6,2,6,2.7,9.3,1.6,3.4-1.1,5.9-3.9,7.2-7.2-2.6-2-6-2.7-9.3-1.6-3.4,1.1-5.9,3.9-7.2,7.2Z"/>
      <path class="cls-14" d="M16.6,22.8c-3.4,1.1-6.8.4-9.3-1.6,1.2-3.3,3.8-6,7.1-7.1,3.4-1.1,6.8-.4,9.3,1.6-1.2,3.3-3.8,6-7.1,7.1Z"/>
      <path class="cls-1" d="M34.2,19V5.4h5.3l2.2,6.8.7,2.5.7-2.5,2.2-6.8h5.2v13.6h-4.1l.3-9-1.1,3.7-1.7,5.3h-3l-1.8-5.4-1-3.6.3,9h-4.1ZM52.4,7.3v-2.7h3.9v2.7h-3.9ZM52.4,19v-10.9h3.9v10.9h-3.9ZM58.1,19v-10.9h3.9v1.4c.7-1.2,1.8-1.8,3-1.8,2,0,3.6,1.2,3.6,4v7.2h-3.9v-6.4c0-1.2-.4-1.7-1.3-1.7s-1.5.7-1.5,2v6.1h-3.9ZM70.9,15.2v-4.2h-1.2v-2.9h1.2v-2.5h3.9v2.5h2.1v2.9h-2.1v3.5c0,.9.2,1.5,1.4,1.5h.7v2.9c-.4.2-1.3.4-2.3.4-2.5,0-3.7-1.5-3.7-4.2Z"/>
      <path class="cls-4" d="M87.2,10.5c0,3.2,6.9.7,6.9,5.3s-1.7,3.4-4.1,3.4-4.1-1.1-4.6-3.4h1.6c.4,1.3,1.4,2.1,3,2.1s2.6-.7,2.6-1.9c0-3.4-6.9-.9-6.9-5.4s1.4-3,3.8-3,3.9,1,4.3,3.4h-1.6c-.3-1.5-1.3-2.1-2.7-2.1s-2.2.6-2.2,1.6ZM96.2,16.5v-5.1h-1.2v-1.2h1.2v-2h1.5v2h1.9v1.2h-1.9v5.1c0,1.1.3,1.6,1.6,1.6h.3v1c-.2,0-.5.1-.9.1-1.6,0-2.4-.9-2.4-2.7ZM102.5,13.1h-1.5c.3-1.9,1.6-3.1,3.7-3.1s3.5,1.4,3.5,3.4v3.4c0,1,0,1.6.3,2.1h-1.5c-.2-.3-.2-.9-.2-1.4-.7,1.1-1.9,1.6-3,1.6-1.8,0-3-.8-3-2.5s.7-2.1,1.9-2.5c1.2-.4,2.4-.5,4.1-.5v-.2c0-1.4-.7-2.2-2.2-2.2s-1.9.7-2.1,1.8ZM102.3,16.7c0,.8.7,1.3,1.7,1.3,1.6,0,2.8-1.3,2.8-2.8v-.4c-3.7,0-4.5.8-4.5,1.9ZM110.8,19v-8.8h1.5v1.4c.6-1.1,1.5-1.6,2.6-1.6s.7,0,.8.2v1.3c-.2,0-.6-.1-.9-.1-1.7,0-2.5,1.1-2.5,2.7v4.9h-1.5ZM117.3,16.5v-5.1h-1.2v-1.2h1.2v-2h1.5v2h1.9v1.2h-1.9v5.1c0,1.1.3,1.6,1.6,1.6h.3v1c-.2,0-.5.1-.9.1-1.6,0-2.4-.9-2.4-2.7ZM129.8,16.1c-.5,2-1.9,3.1-3.9,3.1s-4.1-1.7-4.1-4.6,1.5-4.6,4-4.6,4,1.7,4,4.5v.4h-6.5c0,2,1,3.1,2.6,3.1s2.1-.6,2.4-1.8h1.5ZM125.8,11.3c-1.4,0-2.2.9-2.5,2.5h4.9c-.2-1.6-1.1-2.5-2.4-2.5ZM131.8,19v-8.8h1.5v1.4c.6-1.1,1.5-1.6,2.6-1.6s.7,0,.8.2v1.3c-.2,0-.6-.1-.9-.1-1.7,0-2.5,1.1-2.5,2.7v4.9h-1.5ZM141.8,19V7.8h1.5v5.4l5.1-5.4h1.9l-5.3,5.5,5.4,5.7h-2l-5.1-5.4v5.4h-1.5ZM152.1,9.1v-1.9h1.5v1.9h-1.5ZM152.1,19v-8.8h1.5v8.8h-1.5ZM156.2,16.5v-5.1h-1.2v-1.2h1.2v-2h1.5v2h1.9v1.2h-1.9v5.1c0,1.1.3,1.6,1.6,1.6h.3v1c-.2,0-.5.1-.9.1-1.6,0-2.4-.9-2.4-2.7Z"/>
    </g>
    <g id="Calque_2" data-name="Calque 2">
      <g class="cls-17">
        <sodipodi:namedview id="base" bordercolor="#666666" borderopacity="1.0" fit-margin-bottom="0" fit-margin-left="0" fit-margin-right="0" fit-margin-top="0" pagecolor="#ffffff" showgrid="false"/>
        <g id="layer1">
          <g id="g3876">
            <path id="path3825" class="cls-8" d="M10.1,1c-1.4,0-2.5.5-2.5,1.1s0,.2.1.3h0c1.4,1.1,4.1.8,4.8-.1h0s0-.1,0-.2h0c0-.6-1.1-1.1-2.5-1.1h0ZM12.5,2.5v1.1c-.9,1.1-3.7,1.3-4.9,0v-1.1s-1.4.9-1.4.9c-.1,0-.3,0-.4,0-1.4,0-2.5.5-2.5,1.1s0,.3.2.4c1.4,1.1,4.1.8,4.7-.2v1.3c-.9,1.1-3.7,1.3-4.9,0v-.9s-1.9,1.1-1.9,1.1l8.8,5.1,8.8-5.1-2-1.1v.9c-.9,1.1-3.7,1.3-4.9,0v-1.3c1.4,1.2,4.2.9,4.9,0,0,0,0,0,0,0,0,0,0-.2,0-.2h0c0-.6-1.1-1.1-2.5-1.1s-.3,0-.5,0l-1.5-.9h0ZM12.6,7.2v1.3c-.9,1.1-3.7,1.3-4.9,0v-1.3c1.4,1.2,4.3.9,4.9,0Z"/>
            <path id="path3805" class="cls-8" d="M1.1,7.8l8.2,4.9v7.4L1,15.4v-7.6Z"/>
            <path id="path3805-4" class="cls-8" d="M19.1,7.6l-8.2,5.1v7.4l8.2-4.6v-7.9Z"/>
          </g>
        </g>
      </g>
      <path class="cls-2" d="M9.6,23.2L1.4,18.3c-.3-.2-.3-.5,0-.7l8.2-4.9c.3-.2.9-.2,1.2,0l8.2,4.9c.3.2.3.5,0,.7l-8.2,4.9c-.3.2-.9.2-1.2,0Z"/>
      <g>
        <path class="cls-8" d="M24.5,5.7h2.1v11.4h3.4v1.9h-5.5V5.7Z"/>
        <path class="cls-8" d="M34.3,11.3h2.9v1.9h-2.9v3.9h3.6v1.9h-5.7V5.7h5.7v1.9h-3.6v3.7Z"/>
        <path class="cls-8" d="M43.6,11.6h2.9v4.2c0,2.1-1.1,3.3-3.1,3.3s-3.1-1.2-3.1-3.3v-6.9c0-2.1,1.1-3.3,3.1-3.3s3.1,1.2,3.1,3.3v1.3h-2v-1.4c0-1-.4-1.3-1.1-1.3s-1.1.4-1.1,1.3v7.2c0,1,.4,1.3,1.1,1.3s1.1-.3,1.1-1.3v-2.5h-.9v-1.9Z"/>
        <path class="cls-8" d="M56,19h-2.1l-.4-2.4h-2.6l-.4,2.4h-1.9l2.1-13.3h3.1l2.1,13.3ZM51.2,14.8h2l-1-6.7h0l-1,6.7Z"/>
        <path class="cls-8" d="M60.3,5.7v10.3c0,1,.4,1.3,1.1,1.3s1.1-.3,1.1-1.3V5.7h2v10.1c0,2.1-1.1,3.3-3.1,3.3s-3.1-1.2-3.1-3.3V5.7h2.1Z"/>
        <path class="cls-8" d="M69.9,5.5c2,0,3.1,1.2,3.1,3.3v.4h-2v-.6c0-1-.4-1.3-1-1.3s-1,.4-1,1.3.4,1.7,1.8,2.9c1.7,1.5,2.3,2.6,2.3,4.2s-1.1,3.3-3.1,3.3-3.1-1.2-3.1-3.3v-.8h2v1c0,1,.4,1.3,1.1,1.3s1.1-.3,1.1-1.3-.4-1.7-1.8-2.9c-1.7-1.5-2.3-2.6-2.3-4.2s1-3.3,3.1-3.3Z"/>
        <path class="cls-8" d="M78.4,5.5c2,0,3.1,1.2,3.1,3.3v.4h-2v-.6c0-1-.4-1.3-1-1.3s-1,.4-1,1.3.4,1.7,1.8,2.9c1.7,1.5,2.3,2.6,2.3,4.2s-1.1,3.3-3.1,3.3-3.1-1.2-3.1-3.3v-.8h2v1c0,1,.4,1.3,1.1,1.3s1.1-.3,1.1-1.3-.4-1.7-1.8-2.9c-1.7-1.5-2.3-2.6-2.3-4.2s1-3.3,3.1-3.3Z"/>
        <path class="cls-8" d="M84,5.7h2.1v13.3h-2.1V5.7Z"/>
        <path class="cls-8" d="M88.3,5.7h6.5v1.9h-2.2v11.4h-2.1V7.6h-2.2v-1.9Z"/>
        <path class="cls-8" d="M96.8,8.9c0-2.1,1.1-3.3,3.2-3.3s3.2,1.2,3.2,3.3v6.9c0,2.1-1.1,3.3-3.2,3.3s-3.2-1.2-3.2-3.3v-6.9ZM98.9,15.9c0,1,.4,1.3,1.1,1.3s1.1-.4,1.1-1.3v-7.2c0-1-.4-1.3-1.1-1.3s-1.1.4-1.1,1.3v7.2Z"/>
        <path class="cls-8" d="M105.2,5.7h6.5v1.9h-2.2v11.4h-2.1V7.6h-2.2v-1.9Z"/>
      </g>
      <rect class="cls-8" x="117.6" y="5.7" width="30.8" height="13.3" rx="2" ry="2"/>
      <g>
        <path class="cls-12" d="M122.3,8.2h2.3c1.4,0,2.1.8,2.1,2.2v4.6c0,1.5-.7,2.2-2.1,2.2h-2.3v-9.1ZM123.7,9.5v6.5h.8c.5,0,.7-.2.7-.9v-4.7c0-.7-.3-.9-.7-.9h-.8Z"/>
        <path class="cls-12" d="M128.4,10.4c0-1.5.8-2.3,2.2-2.3s2.2.8,2.2,2.3v4.7c0,1.5-.8,2.3-2.2,2.3s-2.2-.8-2.2-2.3v-4.7ZM129.8,15.3c0,.6.3.9.7.9s.7-.2.7-.9v-4.9c0-.6-.3-.9-.7-.9s-.7.2-.7.9v4.9Z"/>
        <path class="cls-12" d="M138.7,14v1.2c0,1.5-.7,2.3-2.1,2.3s-2.1-.8-2.1-2.3v-4.7c0-1.5.7-2.3,2.1-2.3s2.1.8,2.1,2.3v.9h-1.4v-1c0-.6-.3-.9-.7-.9s-.7.2-.7.9v4.9c0,.6.3.9.7.9s.7-.2.7-.9v-1.3h1.4Z"/>
        <path class="cls-12" d="M142.4,8.1c1.4,0,2.1.8,2.1,2.3v.3h-1.4v-.4c0-.6-.3-.9-.7-.9s-.7.2-.7.9.3,1.2,1.2,2c1.2,1.1,1.6,1.8,1.6,2.8s-.7,2.3-2.1,2.3-2.1-.8-2.1-2.3v-.6h1.4v.7c0,.6.3.9.7.9s.7-.2.7-.9-.3-1.2-1.2-2c-1.2-1.1-1.6-1.8-1.6-2.8s.7-2.3,2.1-2.3Z"/>
      </g>
    </g>
  </g>
</svg>