<?xml version="1.0" encoding="UTF-8" standalone="no"?>
<!-- Created with Inkscape (http://www.inkscape.org/) -->

<svg
   version="1.1"
   id="svg2"
   width="213.33333"
   height="32"
   viewBox="0 0 213.33333 32"
   sodipodi:docname="logo-docs2.ai"
   xmlns:inkscape="http://www.inkscape.org/namespaces/inkscape"
   xmlns:sodipodi="http://sodipodi.sourceforge.net/DTD/sodipodi-0.dtd"
   xmlns="http://www.w3.org/2000/svg"
   xmlns:svg="http://www.w3.org/2000/svg">
  <defs
     id="defs6">
    <clipPath
       clipPathUnits="userSpaceOnUse"
       id="clipPath16">
      <path
         d="M 0,24 H 160 V 0 H 0 Z"
         id="path14" />
    </clipPath>
    <clipPath
       clipPathUnits="userSpaceOnUse"
       id="clipPath24">
      <path
         d="M 1.02415,22.9911 H 19.1265 V 3.92618 H 1.02415 Z"
         id="path22" />
    </clipPath>
    <clipPath
       clipPathUnits="userSpaceOnUse"
       id="clipPath48">
      <path
         d="M 1.15384,11.3819 H 19.2561 V 0.64566 H 1.15384 Z"
         id="path46" />
    </clipPath>
    <clipPath
       clipPathUnits="userSpaceOnUse"
       id="clipPath72">
      <path
         d="M 0,24 H 160 V 0 H 0 Z"
         id="path70" />
    </clipPath>
  </defs>
  <sodipodi:namedview
     id="namedview4"
     pagecolor="#ffffff"
     bordercolor="#000000"
     borderopacity="0.25"
     inkscape:showpageshadow="2"
     inkscape:pageopacity="0.0"
     inkscape:pagecheckerboard="0"
     inkscape:deskcolor="#d1d1d1" />
  <g
     id="g8"
     inkscape:groupmode="layer"
     inkscape:label="logo-docs2"
     transform="matrix(1.3333333,0,0,-1.3333333,0,32)">
    <g
       id="g10">
      <g
         id="g12"
         clip-path="url(#clipPath16)">
        <g
           id="g18">
          <g
             id="g20" />
          <g
             id="g40">
            <g
               clip-path="url(#clipPath24)"
               opacity="0.800003"
               id="g38">
              <g
                 transform="translate(12.5816,16.8114)"
                 id="g28">
                <path
                   d="m 0,0 -0.033,-1.289 c -0.887,-1.06 -3.647,-1.259 -4.878,0.018 l 0.033,1.253 C -3.516,-1.266 -0.658,-0.95 0,0 M -0.111,4.716 -0.144,3.574 C -1.032,2.515 -3.792,2.315 -5.023,3.592 l 0.034,1.097 -1.47,-0.86 c -0.133,0.01 -0.268,0.018 -0.406,0.018 -1.368,0 -2.477,-0.49 -2.477,-1.094 0,-0.144 0.067,-0.282 0.184,-0.409 1.416,-1.082 4.077,-0.756 4.71,0.157 L -4.482,1.214 C -5.369,0.155 -8.129,-0.044 -9.36,1.232 L -9.336,2.14 -11.235,1.028 -2.438,-4.025 6.354,1.058 4.331,2.203 4.304,1.265 C 3.417,0.206 0.657,0.007 -0.574,1.283 l 0.036,1.254 C 0.815,1.298 3.64,1.6 4.325,2.534 4.326,2.536 4.327,2.538 4.328,2.54 4.368,2.616 4.391,2.695 4.391,2.777 L 4.388,2.789 C 4.375,3.389 3.27,3.871 1.912,3.871 1.744,3.871 1.58,3.861 1.422,3.847 Z M -2.513,6.18 c -1.368,0 -2.476,-0.491 -2.476,-1.094 0,-0.115 0.04,-0.224 0.114,-0.328 L -4.881,4.755 C -3.482,3.613 -0.75,3.936 -0.108,4.863 V 4.818 c 0.049,0.085 0.075,0.176 0.075,0.268 L -0.036,5.098 C -0.05,5.697 -1.154,6.18 -2.513,6.18 Z"
                   style="fill:#ffffff;fill-opacity:1;fill-rule:nonzero;stroke:none"
                   id="path26" />
              </g>
              <g
                 transform="translate(1.0727,16.2409)"
                 id="g32">
                <path
                   d="m 0,0 8.192,-4.862 v -7.384 l -8.241,4.619 z"
                   style="fill:#ffffff;fill-opacity:1;fill-rule:nonzero;stroke:none"
                   id="path30" />
              </g>
              <g
                 transform="translate(19.1265,16.4151)"
                 id="g36">
                <path
                   d="m 0,0 -8.24,-5.105 v -7.384 L 0,-7.87 Z"
                   style="fill:#ffffff;fill-opacity:1;fill-rule:nonzero;stroke:none"
                   id="path34" />
              </g>
            </g>
          </g>
        </g>
        <g
           id="g42">
          <g
             id="g44" />
          <g
             id="g56">
            <g
               clip-path="url(#clipPath48)"
               opacity="0.699997"
               id="g54">
              <g
                 transform="translate(9.6063,0.7927)"
                 id="g52">
                <path
                   d="m 0,0 -8.204,4.866 c -0.331,0.196 -0.331,0.514 0,0.71 L 0,10.442 c 0.331,0.196 0.867,0.196 1.197,0 L 9.402,5.576 c 0.331,-0.196 0.331,-0.514 0,-0.71 L 1.197,0 C 0.867,-0.196 0.331,-0.196 0,0"
                   style="fill:#ffffff;fill-opacity:1;fill-rule:nonzero;stroke:none"
                   id="path50" />
              </g>
            </g>
          </g>
        </g>
      </g>
    </g>
    <g
       id="g58"
       transform="translate(24.4565,18.298)">
      <path
         d="m 0,0 h 2.09 v -11.399 h 3.438 v -1.899 H 0 Z"
         style="fill:#ffffff;fill-opacity:1;fill-rule:nonzero;stroke:none"
         id="path60" />
    </g>
    <g
       id="g62"
       transform="translate(34.2983,12.694)">
      <path
         d="M 0,0 H 2.869 V -1.9 H 0 V -5.795 H 3.609 V -7.694 H -2.09 V 5.604 H 3.609 V 3.705 H 0 Z"
         style="fill:#ffffff;fill-opacity:1;fill-rule:nonzero;stroke:none"
         id="path64" />
    </g>
    <g
       id="g66">
      <g
         id="g68"
         clip-path="url(#clipPath72)">
        <g
           id="g74"
           transform="translate(43.646,12.4088)">
          <path
             d="m 0,0 h 2.925 v -4.218 c 0,-2.128 -1.063,-3.344 -3.115,-3.344 -2.052,0 -3.116,1.216 -3.116,3.344 v 6.916 c 0,2.128 1.064,3.344 3.116,3.344 2.052,0 3.115,-1.216 3.115,-3.344 V 1.406 H 0.95 v 1.425 c 0,0.95 -0.418,1.311 -1.083,1.311 -0.665,0 -1.083,-0.361 -1.083,-1.311 v -7.182 c 0,-0.95 0.418,-1.292 1.083,-1.292 0.665,0 1.083,0.342 1.083,1.292 v 2.452 H 0 Z"
             style="fill:#ffffff;fill-opacity:1;fill-rule:nonzero;stroke:none"
             id="path76" />
        </g>
        <g
           id="g78"
           transform="translate(51.208,9.2174)">
          <path
             d="M 0,0 H 2.014 L 1.026,6.725 H 0.988 Z M 4.769,-4.218 H 2.66 l -0.361,2.413 h -2.565 l -0.361,-2.413 h -1.918 l 2.127,13.299 h 3.059 z"
             style="fill:#ffffff;fill-opacity:1;fill-rule:nonzero;stroke:none"
             id="path80" />
        </g>
        <g
           id="g82"
           transform="translate(60.252,18.298)">
          <path
             d="m 0,0 v -10.258 c 0,-0.95 0.418,-1.292 1.083,-1.292 0.665,0 1.083,0.342 1.083,1.292 V 0 h 1.976 v -10.125 c 0,-2.128 -1.064,-3.344 -3.116,-3.344 -2.052,0 -3.115,1.216 -3.115,3.344 l 0,10.125 z"
             style="fill:#ffffff;fill-opacity:1;fill-rule:nonzero;stroke:none"
             id="path84" />
        </g>
        <g
           id="g86"
           transform="translate(69.9419,18.4503)">
          <path
             d="M 0,0 C 2.033,0 3.078,-1.216 3.078,-3.344 V -3.762 H 1.102 v 0.551 c 0,0.95 -0.38,1.311 -1.045,1.311 -0.665,0 -1.045,-0.361 -1.045,-1.311 0,-0.969 0.418,-1.69 1.786,-2.887 1.748,-1.539 2.299,-2.641 2.299,-4.161 0,-2.128 -1.064,-3.344 -3.116,-3.344 -2.051,0 -3.115,1.216 -3.115,3.344 v 0.817 h 1.975 v -0.95 c 0,-0.95 0.418,-1.292 1.083,-1.292 0.665,0 1.083,0.342 1.083,1.292 0,0.969 -0.418,1.691 -1.786,2.888 -1.747,1.539 -2.298,2.641 -2.298,4.16 C -3.077,-1.216 -2.033,0 0,0"
             style="fill:#ffffff;fill-opacity:1;fill-rule:nonzero;stroke:none"
             id="path88" />
        </g>
        <g
           id="g90"
           transform="translate(78.3589,18.4503)">
          <path
             d="M 0,0 C 2.033,0 3.078,-1.216 3.078,-3.344 V -3.762 H 1.102 v 0.551 c 0,0.95 -0.38,1.311 -1.045,1.311 -0.665,0 -1.045,-0.361 -1.045,-1.311 0,-0.969 0.418,-1.69 1.786,-2.887 1.748,-1.539 2.299,-2.641 2.299,-4.161 0,-2.128 -1.064,-3.344 -3.116,-3.344 -2.051,0 -3.115,1.216 -3.115,3.344 v 0.817 h 1.975 v -0.95 c 0,-0.95 0.418,-1.292 1.083,-1.292 0.665,0 1.083,0.342 1.083,1.292 0,0.969 -0.418,1.691 -1.786,2.888 -1.747,1.539 -2.298,2.641 -2.298,4.16 C -3.077,-1.216 -2.033,0 0,0"
             style="fill:#ffffff;fill-opacity:1;fill-rule:nonzero;stroke:none"
             id="path92" />
        </g>
        <path
           d="m 83.964,18.298 h 2.09 V 5 h -2.09 z"
           style="fill:#ffffff;fill-opacity:1;fill-rule:nonzero;stroke:none"
           id="path94" />
        <g
           id="g96"
           transform="translate(88.2773,18.298)">
          <path
             d="M 0,0 H 6.459 V -1.899 H 4.274 V -13.298 H 2.185 v 11.399 l -2.185,0 z"
             style="fill:#ffffff;fill-opacity:1;fill-rule:nonzero;stroke:none"
             id="path98" />
        </g>
        <g
           id="g100"
           transform="translate(98.8789,8.0582)">
          <path
             d="m 0,0 c 0,-0.95 0.418,-1.311 1.083,-1.311 0.665,0 1.083,0.361 1.083,1.311 v 7.181 c 0,0.95 -0.418,1.311 -1.083,1.311 C 0.418,8.492 0,8.131 0,7.181 Z m -2.09,7.048 c 0,2.128 1.121,3.344 3.173,3.344 2.052,0 3.172,-1.216 3.172,-3.344 V 0.133 c 0,-2.128 -1.12,-3.344 -3.172,-3.344 -2.052,0 -3.173,1.216 -3.173,3.344 z"
             style="fill:#ffffff;fill-opacity:1;fill-rule:nonzero;stroke:none"
             id="path102" />
        </g>
        <g
           id="g104"
           transform="translate(105.1875,18.298)">
          <path
             d="M 0,0 H 6.459 V -1.899 H 4.274 V -13.298 H 2.185 v 11.399 l -2.185,0 z"
             style="fill:#ffffff;fill-opacity:1;fill-rule:nonzero;stroke:none"
             id="path106" />
        </g>
        <g
           id="g108"
           transform="translate(146.413,5)">
          <path
             d="m 0,0 h -26.798 c -1.104,0 -2,0.895 -2,2 v 9.3 c 0,1.104 0.896,2 2,2 H 0 c 1.105,0 2,-0.896 2,-2 V 2 C 2,0.895 1.105,0 0,0"
             style="fill:#ffffff;fill-opacity:1;fill-rule:nonzero;stroke:none"
             id="path110" />
        </g>
        <g
           id="g112"
           transform="translate(123.7402,14.4503)">
          <path
             d="m 0,0 v -6.5 h 0.807 c 0.454,0 0.727,0.234 0.727,0.883 v 4.733 C 1.534,-0.234 1.261,0 0.807,0 Z m -1.43,1.3 h 2.262 c 1.431,0 2.132,-0.793 2.132,-2.249 V -5.551 C 2.964,-7.007 2.263,-7.8 0.832,-7.8 H -1.43 Z"
             style="fill:#35a8e0;fill-opacity:1;fill-rule:nonzero;stroke:none"
             id="path114" />
        </g>
        <g
           id="g116"
           transform="translate(129.8242,8.7428)">
          <path
             d="m 0,0 c 0,-0.649 0.286,-0.896 0.741,-0.896 0.455,0 0.74,0.247 0.74,0.896 v 4.915 c 0,0.649 -0.285,0.897 -0.74,0.897 C 0.286,5.812 0,5.564 0,4.915 Z m -1.431,4.823 c 0,1.456 0.768,2.288 2.172,2.288 1.404,0 2.171,-0.832 2.171,-2.288 V 0.091 c 0,-1.455 -0.767,-2.287 -2.171,-2.287 -1.404,0 -2.172,0.832 -2.172,2.287 z"
             style="fill:#35a8e0;fill-opacity:1;fill-rule:nonzero;stroke:none"
             id="path118" />
        </g>
        <g
           id="g120"
           transform="translate(138.7031,10.0426)">
          <path
             d="m 0,0 v -1.209 c 0,-1.455 -0.729,-2.287 -2.132,-2.287 -1.404,0 -2.133,0.832 -2.133,2.287 v 4.732 c 0,1.456 0.729,2.289 2.133,2.289 C -0.729,5.812 0,4.979 0,3.523 V 2.64 h -1.353 v 0.975 c 0,0.65 -0.285,0.897 -0.74,0.897 -0.455,0 -0.741,-0.247 -0.741,-0.897 V -1.3 c 0,-0.649 0.286,-0.884 0.741,-0.884 0.455,0 0.74,0.235 0.74,0.884 V 0 Z"
             style="fill:#35a8e0;fill-opacity:1;fill-rule:nonzero;stroke:none"
             id="path122" />
        </g>
        <g
           id="g124"
           transform="translate(142.3955,15.8541)">
          <path
             d="M 0,0 C 1.391,0 2.105,-0.832 2.105,-2.288 V -2.574 H 0.754 v 0.377 c 0,0.65 -0.261,0.897 -0.716,0.897 -0.454,0 -0.715,-0.247 -0.715,-0.897 0,-0.663 0.286,-1.157 1.223,-1.976 1.195,-1.054 1.572,-1.807 1.572,-2.848 0,-1.455 -0.727,-2.287 -2.132,-2.287 -1.404,0 -2.132,0.832 -2.132,2.287 v 0.56 h 1.352 v -0.65 c 0,-0.65 0.286,-0.884 0.741,-0.884 0.455,0 0.741,0.234 0.741,0.884 0,0.663 -0.286,1.157 -1.221,1.976 -1.196,1.053 -1.573,1.807 -1.573,2.847 C -2.106,-0.832 -1.392,0 0,0"
             style="fill:#35a8e0;fill-opacity:1;fill-rule:nonzero;stroke:none"
             id="path126" />
        </g>
      </g>
    </g>
  </g>
</svg>
