<?xml version="1.0" encoding="UTF-8"?>
<svg id="Calque_1" data-name="Calque 1" xmlns="http://www.w3.org/2000/svg" xmlns:xlink="http://www.w3.org/1999/xlink" version="1.1" viewBox="0 0 700 320">
  <defs>
    <style>
      .cls-1 {
        fill-opacity: .3;
      }

      .cls-1, .cls-2, .cls-3, .cls-4, .cls-5, .cls-6, .cls-7, .cls-8, .cls-9, .cls-10, .cls-11, .cls-12, .cls-13, .cls-14, .cls-15, .cls-16, .cls-17, .cls-18, .cls-19 {
        stroke-width: 0px;
      }

      .cls-1, .cls-2, .cls-10, .cls-12, .cls-13, .cls-15 {
        fill: #3ba9e0;
      }

      .cls-20 {
        clip-path: url(#clippath);
      }

      .cls-2, .cls-4, .cls-5, .cls-6, .cls-7, .cls-8, .cls-9, .cls-21, .cls-22, .cls-23, .cls-14, .cls-17, .cls-18 {
        display: none;
      }

      .cls-3, .cls-24, .cls-25, .cls-26, .cls-27, .cls-28, .cls-21, .cls-22, .cls-23, .cls-29 {
        fill: none;
      }

      .cls-30 {
        stroke-width: 1.4px;
      }

      .cls-30, .cls-4, .cls-5, .cls-10, .cls-11, .cls-31, .cls-14, .cls-32, .cls-18 {
        isolation: isolate;
      }

      .cls-30, .cls-31, .cls-33 {
        stroke: #fff;
        stroke-miterlimit: 10;
      }

      .cls-30, .cls-31, .cls-33, .cls-16, .cls-17 {
        fill: #fff;
      }

      .cls-24 {
        stroke-dasharray: 0 0 0 0 0 0 0 0 0 0 0 0;
      }

      .cls-24, .cls-29 {
        stroke: #010101;
      }

      .cls-4 {
        fill: url(#Dégradé_sans_nom_3);
      }

      .cls-4, .cls-5, .cls-13, .cls-18 {
        fill-opacity: .5;
      }

      .cls-4, .cls-5, .cls-14, .cls-18 {
        mix-blend-mode: hard-light;
      }

      .cls-5 {
        fill: url(#Dégradé_sans_nom_8);
      }

      .cls-6 {
        fill: url(#Dégradé_sans_nom);
      }

      .cls-25 {
        stroke: url(#Dégradé_sans_nom_13);
      }

      .cls-26 {
        stroke: url(#Dégradé_sans_nom_10);
      }

      .cls-27 {
        stroke: url(#Dégradé_sans_nom_12);
      }

      .cls-28 {
        stroke: url(#Dégradé_sans_nom_11);
      }

      .cls-7 {
        fill: url(#Dégradé_sans_nom_5);
      }

      .cls-8 {
        fill: url(#Dégradé_sans_nom_2);
      }

      .cls-9 {
        fill: url(#Dégradé_sans_nom_7);
      }

      .cls-10 {
        opacity: .6;
      }

      .cls-21 {
        stroke: url(#Dégradé_sans_nom_6);
      }

      .cls-21, .cls-22, .cls-23 {
        stroke-opacity: 0;
        stroke-width: .5px;
      }

      .cls-22 {
        stroke: url(#Dégradé_sans_nom_9);
      }

      .cls-23 {
        stroke: url(#Dégradé_sans_nom_4);
      }

      .cls-11, .cls-34 {
        opacity: .7;
      }

      .cls-11, .cls-19 {
        fill: #1b9dd9;
      }

      .cls-12 {
        fill-opacity: .4;
      }

      .cls-31 {
        stroke-width: 2.8px;
      }

      .cls-14, .cls-15 {
        fill-opacity: .2;
      }

      .cls-14, .cls-18 {
        fill: #010101;
      }

      .cls-33 {
        stroke-width: 1.5px;
      }

      .cls-35 {
        opacity: .1;
      }

      .cls-35, .cls-36 {
        mix-blend-mode: overlay;
      }

      .cls-36 {
        opacity: 0;
      }
    </style>
    <clipPath id="clippath">
      <rect class="cls-3" y="0" width="700" height="320" rx="16" ry="16"/>
    </clipPath>
    <linearGradient id="Dégradé_sans_nom" data-name="Dégradé sans nom" x1="-5.4" y1="-407.8" x2="705.4" y2="-113.9" gradientTransform="translate(0 -100.8) scale(1 -1)" gradientUnits="userSpaceOnUse">
      <stop offset="0" stop-color="#5fb98b" stop-opacity="0"/>
      <stop offset=".7" stop-color="#109473" stop-opacity="0"/>
    </linearGradient>
    <radialGradient id="Dégradé_sans_nom_2" data-name="Dégradé sans nom 2" cx="146.1" cy="627.3" fx="146.1" fy="627.3" r="1" gradientTransform="translate(-5829.7 107942.4) rotate(-10) scale(169.1 -167.5)" gradientUnits="userSpaceOnUse">
      <stop offset="0" stop-color="#05b1bc"/>
      <stop offset="1" stop-color="#55b25f"/>
    </radialGradient>
    <linearGradient id="Dégradé_sans_nom_3" data-name="Dégradé sans nom 3" x1="314.7" y1="-197.8" x2="260.5" y2="-328.4" gradientTransform="translate(0 -100.8) scale(1 -1)" gradientUnits="userSpaceOnUse">
      <stop offset="0" stop-color="#5fb98b"/>
      <stop offset="1" stop-color="#010101"/>
    </linearGradient>
    <linearGradient id="Dégradé_sans_nom_4" data-name="Dégradé sans nom 4" x1="311.7" y1="-224.4" x2="253.5" y2="-325.5" gradientTransform="translate(0 -100.8) scale(1 -1)" gradientUnits="userSpaceOnUse">
      <stop offset="0" stop-color="#010101"/>
      <stop offset="1" stop-color="#010101" stop-opacity="0"/>
    </linearGradient>
    <radialGradient id="Dégradé_sans_nom_5" data-name="Dégradé sans nom 5" cx="144.1" cy="631.3" fx="144.1" fy="631.3" r="1" gradientTransform="translate(130126.3 63469.1) rotate(-75.8) scale(203.6 -223.9)" gradientUnits="userSpaceOnUse">
      <stop offset="0" stop-color="#27b5b7"/>
      <stop offset=".7" stop-color="#55b25f"/>
    </radialGradient>
    <linearGradient id="Dégradé_sans_nom_6" data-name="Dégradé sans nom 6" x1="308.6" y1="-203" x2="383.5" y2="-301.9" gradientTransform="translate(0 -100.8) scale(1 -1)" gradientUnits="userSpaceOnUse">
      <stop offset="0" stop-color="#010101"/>
      <stop offset="1" stop-color="#010101" stop-opacity="0"/>
    </linearGradient>
    <radialGradient id="Dégradé_sans_nom_7" data-name="Dégradé sans nom 7" cx="145.5" cy="627.6" fx="145.5" fy="627.6" r="1" gradientTransform="translate(12074 105082.6) rotate(-20.4) scale(174.8 -163.1)" gradientUnits="userSpaceOnUse">
      <stop offset="0" stop-color="#05b1bc"/>
      <stop offset="1" stop-color="#55b25f"/>
    </radialGradient>
    <linearGradient id="Dégradé_sans_nom_8" data-name="Dégradé sans nom 8" x1="411" y1="-280.9" x2="347.2" y2="-374.9" gradientTransform="translate(0 -100.8) scale(1 -1)" gradientUnits="userSpaceOnUse">
      <stop offset="0" stop-color="#00b2bc"/>
      <stop offset="1" stop-color="#010101"/>
    </linearGradient>
    <linearGradient id="Dégradé_sans_nom_9" data-name="Dégradé sans nom 9" x1="395.8" y1="-270.6" x2="370.9" y2="-372.6" gradientTransform="translate(0 -100.8) scale(1 -1)" gradientUnits="userSpaceOnUse">
      <stop offset="0" stop-color="#010101"/>
      <stop offset="1" stop-color="#010101" stop-opacity="0"/>
    </linearGradient>
    <linearGradient id="Dégradé_sans_nom_10" data-name="Dégradé sans nom 10" x1="350" y1="-100.8" x2="350" y2="-420.8" gradientTransform="translate(0 -100.8) scale(1 -1)" gradientUnits="userSpaceOnUse">
      <stop offset="0" stop-color="#010101" stop-opacity="0"/>
      <stop offset="0" stop-color="#010101" stop-opacity=".3"/>
      <stop offset=".3" stop-color="#010101"/>
      <stop offset=".7" stop-color="#010101"/>
      <stop offset="1" stop-color="#010101" stop-opacity=".3"/>
    </linearGradient>
    <linearGradient id="Dégradé_sans_nom_11" data-name="Dégradé sans nom 11" x1="0" y1="-260.8" x2="700" y2="-260.8" gradientTransform="translate(0 -100.8) scale(1 -1)" gradientUnits="userSpaceOnUse">
      <stop offset="0" stop-color="#010101" stop-opacity=".1"/>
      <stop offset=".5" stop-color="#010101"/>
      <stop offset="1" stop-color="#010101" stop-opacity=".1"/>
    </linearGradient>
    <linearGradient id="Dégradé_sans_nom_12" data-name="Dégradé sans nom 12" x1="511" y1="-99.8" x2="189" y2="-421.8" gradientTransform="translate(0 -100.8) scale(1 -1)" gradientUnits="userSpaceOnUse">
      <stop offset="0" stop-color="#010101" stop-opacity=".1"/>
      <stop offset=".5" stop-color="#010101"/>
      <stop offset="1" stop-color="#010101" stop-opacity=".1"/>
    </linearGradient>
    <linearGradient id="Dégradé_sans_nom_13" data-name="Dégradé sans nom 13" x1="511" y1="-421.8" x2="189" y2="-99.8" gradientTransform="translate(0 -100.8) scale(1 -1)" gradientUnits="userSpaceOnUse">
      <stop offset="0" stop-color="#010101" stop-opacity=".1"/>
      <stop offset=".5" stop-color="#010101"/>
      <stop offset="1" stop-color="#010101" stop-opacity=".1"/>
    </linearGradient>
  </defs>
  <g class="cls-32">
    <g id="Calque_1-2" data-name="Calque 1-2">
      <g class="cls-20">
        <g>
          <rect class="cls-6" y="0" width="700" height="320" rx="16" ry="16"/>
          <path class="cls-17" d="M311.9,247.3c-28.8,0-53.7-15.8-65.6-45.7-11.9-29.8-8.3-67.1,7.1-100.5,28.8,0,53.7,15.8,65.6,45.7,11.9,29.8,8.3,67.1-7.1,100.5Z"/>
          <path class="cls-8" d="M311.9,247.3c-28.8,0-53.7-15.8-65.6-45.7-11.9-29.8-8.3-67.1,7.1-100.5,28.8,0,53.7,15.8,65.6,45.7,11.9,29.8,8.3,67.1-7.1,100.5Z"/>
          <path class="cls-18" d="M311.9,247.3c-28.8,0-53.7-15.8-65.6-45.7-11.9-29.8-8.3-67.1,7.1-100.5,28.8,0,53.7,15.8,65.6,45.7,11.9,29.8,8.3,67.1-7.1,100.5Z"/>
          <path class="cls-4" d="M311.9,247.3c-28.8,0-53.7-15.8-65.6-45.7-11.9-29.8-8.3-67.1,7.1-100.5,28.8,0,53.7,15.8,65.6,45.7,11.9,29.8,8.3,67.1-7.1,100.5Z"/>
          <path class="cls-23" d="M311.7,247c-28.6-.1-53.3-15.8-65.2-45.5-11.9-29.7-8.3-66.8,7-100.2,28.6,0,53.3,15.8,65.2,45.5s8.3,66.8-7,100.2Z"/>
          <path class="cls-17" d="M305.8,247.2c38.1-9.8,71.3-36.6,87.7-75.5,16.4-39,12.4-81.4-7.2-115.4-38.1,9.8-71.3,36.6-87.7,75.5-16.4,39-12.4,81.4,7.2,115.4h0Z"/>
          <path class="cls-7" d="M305.8,247.2c38.1-9.8,71.3-36.6,87.7-75.5,16.4-39,12.4-81.4-7.2-115.4-38.1,9.8-71.3,36.6-87.7,75.5-16.4,39-12.4,81.4,7.2,115.4h0Z"/>
          <path class="cls-21" d="M393.3,171.5c-16.4,38.8-49.5,65.6-87.4,75.3-19.5-33.9-23.5-76.2-7.1-115s49.5-65.6,87.4-75.3c19.5,33.9,23.5,76.2,7.1,115Z"/>
          <path class="cls-17" d="M305.7,247c24.1,19.1,56.3,25.8,88,15.1,31.7-10.7,55.8-36.4,67.4-67.6-24.1-19.1-56.3-25.8-88-15.1s-55.8,36.4-67.4,67.6Z"/>
          <path class="cls-9" d="M305.7,247c24.1,19.1,56.3,25.8,88,15.1,31.7-10.7,55.8-36.4,67.4-67.6-24.1-19.1-56.3-25.8-88-15.1s-55.8,36.4-67.4,67.6Z"/>
          <path class="cls-14" d="M305.7,247c24.1,19.1,56.3,25.8,88,15.1,31.7-10.7,55.8-36.4,67.4-67.6-24.1-19.1-56.3-25.8-88-15.1s-55.8,36.4-67.4,67.6Z"/>
          <path class="cls-5" d="M305.7,247c24.1,19.1,56.3,25.8,88,15.1,31.7-10.7,55.8-36.4,67.4-67.6-24.1-19.1-56.3-25.8-88-15.1s-55.8,36.4-67.4,67.6Z"/>
          <path class="cls-22" d="M393.6,261.9c-31.6,10.7-63.6,4-87.6-15,11.5-31,35.6-56.6,67.1-67.2,31.6-10.7,63.6-4,87.6,15-11.5,31-35.6,56.6-67.1,67.2Z"/>
          <circle class="cls-12" cx="660" cy="-60" r="160"/>
          <circle class="cls-1" cx="20" cy="213" r="160"/>
          <circle class="cls-13" cx="660" cy="480" r="160"/>
          <circle class="cls-15" cx="20" cy="413" r="160"/>
          <g class="cls-35">
            <path class="cls-24" d="M0,50h700"/>
          </g>
          <g class="cls-35">
            <path class="cls-24" d="M0,82h700"/>
          </g>
          <g class="cls-35">
            <path class="cls-24" d="M239,0v320"/>
          </g>
          <g class="cls-35">
            <path class="cls-24" d="M271,0v320"/>
          </g>
          <g class="cls-35">
            <path class="cls-24" d="M461,0v320"/>
          </g>
          <g class="cls-35">
            <path class="cls-26" d="M350,0v320"/>
          </g>
          <g class="cls-35">
            <path class="cls-24" d="M429,0v320"/>
          </g>
          <g class="cls-35">
            <path class="cls-24" d="M0,271h700"/>
          </g>
          <g class="cls-35">
            <path class="cls-24" d="M0,239h700"/>
          </g>
          <g class="cls-35">
            <path class="cls-28" d="M0,160h700"/>
          </g>
          <g class="cls-35">
            <path class="cls-27" d="M511-1L189,321"/>
          </g>
          <g class="cls-35">
            <path class="cls-25" d="M511,321L189-1"/>
          </g>
          <g class="cls-36">
            <circle class="cls-29" cx="350" cy="160" r="111"/>
          </g>
          <g class="cls-36">
            <circle class="cls-29" cx="350" cy="160" r="79"/>
          </g>
        </g>
      </g>
    </g>
    <g id="Calque_2" data-name="Calque 2">
      <rect class="cls-10" y="0" width="700" height="320" rx="18" ry="18"/>
      <g>
        <rect class="cls-2" x="-.6" y="43.1" width="239" height="239"/>
        <path class="cls-33" d="M184.1,175.9l-58.1,33.6c-2.4,1.3-5.3,1.3-7.6,0l-58.2-33.6c-2.4-1.3-3.8-3.9-3.8-6.5v-67.2c0-2.7,1.4-5.2,3.8-6.5l58.2-33.6c2.4-1.3,5.3-1.3,7.6,0l58.2,33.6c2.4,1.3,3.8,3.9,3.8,6.5v67.2c0,2.7-1.4,5.2-3.8,6.5h0Z"/>
        <g class="cls-34">
          <g id="layer1">
            <g id="g3876">
              <path id="path3825" class="cls-19" d="M121.4,76.1c-7.2,0-13,2.6-13,5.8s.2,1.3.6,1.7h0c7.4,6.1,21.7,4.3,25-.6v.2c.2-.4.4-.9.4-1.4h0c0-3.2-5.9-5.8-13-5.8h0ZM134,83.7l-.2,6.1c-4.7,5.6-19.1,6.6-25.6,0l.2-5.8-7.7,4.5h-2.1c-7.2,0-13,2.6-13,5.8s.4,1.6.9,2.1c7.5,5.7,21.4,3.9,24.8-.8l-.2,6.8c-4.7,5.6-19.1,6.6-25.6,0l.2-4.8-10,5.8,46.2,26.5,46.2-26.7-10.6-6.1-.2,4.9c-4.7,5.6-19.1,6.6-25.6,0l.2-6.6c7.1,6.5,22,4.9,25.5,0h0c.2-.4.3-.8.3-1.3h0c0-3.2-5.9-5.8-13-5.8s-1.7,0-2.6.2l-8-4.6h-.2v-.3ZM134.7,108.5l-.2,6.8c-4.7,5.6-19.1,6.6-25.6,0l.2-6.6c7.2,6.5,22.1,4.9,25.6,0h0v-.2Z"/>
              <path id="path3805" class="cls-19" d="M74.2,111.5l43,25.5v38.8l-43.3-24.3.2-40.1h0Z"/>
              <path id="path3805-4" class="cls-19" d="M169,110.6l-43.3,26.8v38.8l43.3-24.3v-41.4h0Z"/>
            </g>
          </g>
        </g>
        <path class="cls-11" d="M119,192.6l-43.1-25.6c-1.7-1-1.7-2.7,0-3.7l43.1-25.6c2-1,4.3-1,6.3,0l43.1,25.6c1.7,1,1.7,2.7,0,3.7l-43.1,25.6c-2,1-4.3,1-6.3,0Z"/>
        <path class="cls-16" d="M32.6,226.7h3.2v17.6h5.4v2.9h-8.6v-20.6h0Z"/>
        <path class="cls-16" d="M51.6,235.3h4.5v2.9h-4.5v6.1h5.6v2.9h-8.8v-20.6h8.8v2.9h-5.6v5.8h0Z"/>
        <path class="cls-16" d="M70.1,235.8h4.6v6.5c0,3.3-1.7,5.2-4.8,5.2s-4.8-1.9-4.8-5.2v-10.7c0-3.3,1.7-5.2,4.8-5.2s4.8,1.9,4.8,5.2v2h-3.1v-2.2c0-1.5-.7-2-1.7-2s-1.7.6-1.7,2v11.1c0,1.5.7,2,1.7,2s1.7-.6,1.7-2v-3.8h-1.5v-3h0Z"/>
        <path class="cls-16" d="M93,247.3h-3.3l-.6-3.8h-3.9l-.6,3.8h-3l3.3-20.6h4.7l3.3,20.6ZM85.6,240.8h3.2l-1.6-10.4-1.6,10.4Z"/>
        <path class="cls-16" d="M103.6,226.7v15.9c0,1.5.7,2,1.7,2s1.7-.6,1.7-2v-15.9h3.1v15.7c0,3.3-1.7,5.2-4.8,5.2s-4.8-1.9-4.8-5.2v-15.7h3.2Z"/>
        <path class="cls-16" d="M122.4,226.4c3.2,0,4.8,1.9,4.8,5.2v.7h-3.1v-.9c0-1.5-.6-2-1.7-2s-1.7.6-1.7,2c0,4.3,6.3,5,6.3,10.9s-1.7,5.2-4.8,5.2-4.8-1.9-4.8-5.2v-1.3h3.1v1.5c0,1.5.7,2,1.7,2s1.7-.6,1.7-2c0-4.3-6.4-5-6.4-10.9s1.6-5.2,4.7-5.2h.2Z"/>
        <path class="cls-16" d="M139.3,226.4c3.2,0,4.8,1.9,4.8,5.2v.7h-3.1v-.9c0-1.5-.6-2-1.7-2s-1.7.6-1.7,2c0,4.3,6.3,5,6.3,10.9s-1.7,5.2-4.8,5.2-4.8-1.9-4.8-5.2v-1.3h3.1v1.5c0,1.5.7,2,1.7,2s1.7-.6,1.7-2c0-4.3-6.3-5-6.3-10.9s1.7-5.2,4.8-5.2h0Z"/>
        <path class="cls-16" d="M151.8,226.7h3.2v20.6h-3.2v-20.6Z"/>
        <path class="cls-16" d="M162.4,226.7h10.1v2.9h-3.4v17.6h-3.2v-17.6h-3.4v-2.9h0Z"/>
        <path class="cls-16" d="M179.5,231.6c0-3.3,1.7-5.2,4.9-5.2s4.9,1.9,4.9,5.2v10.7c0,3.3-1.7,5.2-4.9,5.2s-4.9-1.9-4.9-5.2v-10.7ZM182.7,242.6c0,1.5.7,2,1.7,2s1.7-.6,1.7-2v-11.1c0-1.5-.7-2-1.7-2s-1.7.6-1.7,2v11.1Z"/>
        <path class="cls-16" d="M196.3,226.7h10.1v2.9h-3.4v17.6h-3.2v-17.6h-3.4v-2.9h0Z"/>
        <path class="cls-16" d="M42.7,263v-1.5h4.4v1.5h-4.4Z"/>
        <path class="cls-16" d="M57.1,266.3v-10.5h1.5v3.7h0c.2-.2.4-.4.6-.6s.6-.2.8-.2.6,0,.9.2c.2.2.4.3.5.5s.2.4.2.6v5c0,.2,0,.4-.2.6-.2.5-.8.8-1.3.7-.3,0-.6,0-.9-.2-.2-.2-.4-.3-.6-.6v.7h-1.5,0ZM60.1,261.2c0-.2,0-.4-.2-.6-.2-.2-.3-.3-.6-.2-.2,0-.4,0-.6.2-.2.2-.2.4-.2.6v2.9c0,.2,0,.5.2.7s.3.2.6.2.5,0,.6-.3c.2-.2.2-.5.2-.7v-2.8h0Z"/>
        <path class="cls-16" d="M70.3,258.9v7.5h-1.5v-.7h0c-.2.2-.3.4-.6.6-.2.2-.6.2-.9.2s-.4,0-.6,0c-.2,0-.4-.2-.5-.3-.2-.2-.2-.4-.3-.6,0-.2-.2-.6-.2-.9v-5.8h1.5v5.2c0,.2,0,.5.2.7.2.2.3.2.6.2s.5,0,.6-.2c.2-.2.2-.5.2-.8v-5h1.5Z"/>
        <path class="cls-16" d="M73.9,258.9h1.6l1,4.6h0l1-4.6h1.6l-2.1,8.7c0,.3-.2.6-.3.8-.2.2-.3.4-.5.6s-.4.2-.6.3c-.2,0-.5,0-.7,0h-.3v-1.4h.7c.2,0,.2-.2.3-.2,0-.2.2-.4.2-.6,0-.2.2-.6.2-1l-2-7.2h0Z"/>
        <path class="cls-16" d="M88.3,263v-1.5h4.4v1.5h-4.4Z"/>
        <path class="cls-16" d="M102.7,266.3v-10.5h1.5v3.7h0c.2-.2.4-.4.6-.6s.6-.2.8-.2.6,0,.9.2c.2.2.4.3.5.5s.2.4.2.6v5c0,.2,0,.4-.2.6-.2.5-.8.8-1.3.7-.3,0-.6,0-.9-.2-.2-.2-.4-.3-.6-.6v.7h-1.5,0ZM105.7,261.2c0-.2,0-.4-.2-.6-.2-.2-.3-.3-.6-.2-.2,0-.4,0-.6.2-.2.2-.2.4-.2.6v2.9c0,.2,0,.5.2.7s.3.2.6.2.5,0,.6-.3c.2-.2.2-.5.2-.7v-2.8h0Z"/>
        <path class="cls-16" d="M115.8,258.9v7.5h-1.5v-.7h0c-.2.2-.3.4-.6.6-.2.2-.6.2-.9.2s-.4,0-.6,0c-.2,0-.4-.2-.5-.3-.2-.2-.2-.4-.3-.6,0-.2-.2-.6-.2-.9v-5.8h1.5v5.2c0,.2,0,.5.2.7.2.2.3.2.6.2s.5,0,.6-.2c.2-.2.2-.5.2-.8v-5h1.5Z"/>
        <path class="cls-16" d="M120,257.3v-1.5h1.5v1.5h-1.5ZM120,266.3v-7.5h1.5v7.5h-1.5Z"/>
        <path class="cls-16" d="M125.6,255.8h1.5v8.3c0,.2,0,.4.2.6s.4.2.6.2v1.4c-.3,0-.6,0-.9,0-.2,0-.5-.2-.7-.3-.2-.2-.4-.4-.5-.6,0-.3-.2-.7-.2-1.1v-8.5.2h0Z"/>
        <path class="cls-16" d="M134.4,266.3v-.7l-.2.3c0,0-.2.2-.3.2,0,0-.2.2-.4.2h-.5c-.6,0-1.1-.2-1.3-.7,0-.2-.2-.4-.2-.6v-5c0-.5.3-.9.7-1.1.2-.2.6-.2.9-.2.3,0,.6,0,.8.2.2.2.5.3.6.6h0v-3.7h1.5v10.5h-1.6,0ZM132.9,263.8c0,.2,0,.6.2.7.2.2.3.3.6.3s.4,0,.6-.2c.2-.2.2-.4.2-.7v-2.9c0-.2,0-.4-.2-.6-.2-.2-.3-.2-.6-.2s-.5,0-.6.2c0,.2-.2.4-.2.6v2.8h0Z"/>
        <path class="cls-16" d="M145.8,263v-1.5h4.4v1.5h-4.4Z"/>
        <path class="cls-16" d="M162.9,260.9c0-.2,0-.4-.2-.6-.2-.2-.3-.2-.6-.2s-.4,0-.6.2c-.2.2-.2.3-.2.6s0,.3,0,.4c.2.2.3.3.6.4l.9.3c.5.2.9.5,1.2.9.2.4.3.8.3,1.3s0,.6-.2.9c0,.2-.2.5-.5.7-.2.2-.5.4-.7.5-.3.2-.6.2-.9.2-.6,0-1.1-.2-1.5-.6s-.4-.5-.5-.7c-.2-.3-.2-.6-.2-.9h1.4c0,.2,0,.4.2.6.2.2.4.3.6.2.2,0,.4,0,.6-.2.2-.2.2-.4.2-.6s0-.4-.2-.6-.4-.3-.6-.4l-.7-.2c-.5-.2-.8-.4-1.1-.8s-.4-.8-.4-1.3,0-.6.2-.9c0-.2.3-.5.5-.7.2-.2.4-.3.7-.5s.6-.2.9-.2.6,0,.9.2c.2,0,.5.2.7.5.2.2.3.5.5.7,0,.2.2.6.2.9h-1.7,0Z"/>
        <path class="cls-16" d="M172.6,263.1h-3v1c0,.4.2.7.6.7h.2c.2,0,.5,0,.6-.2,0-.2.2-.3.2-.5h1.5c0,.6-.2,1.2-.6,1.6-.2.2-.5.4-.7.5-.3.2-.6.2-.9.2s-.9,0-1.2-.3c-.3-.2-.6-.5-.8-.8,0-.2-.2-.5-.2-.7v-4.2c0-.2,0-.5.2-.7.2-.3.5-.6.8-.8.4-.2.8-.3,1.2-.3s.6,0,.9.2c.2,0,.6.3.7.5.4.5.6,1,.6,1.7v2.3h0ZM169.6,262h1.5v-.9c0-.2,0-.5-.2-.7s-.8-.3-1.1,0-.2.4-.2.7v.9Z"/>
        <path class="cls-16" d="M176.6,255.8h1.5v8.3c0,.2,0,.4.2.6s.4.2.6.2v1.4c-.3,0-.6,0-.9,0-.2,0-.5-.2-.7-.3-.2-.2-.4-.4-.5-.6,0-.3-.2-.7-.2-1.1v-8.5.2h0Z"/>
        <path class="cls-16" d="M182.2,255.8h1.5v8.3c0,.2,0,.4.2.6s.4.2.6.2v1.4c-.3,0-.6,0-.9,0-.2,0-.5-.2-.7-.3-.2-.2-.4-.4-.5-.6,0-.3-.2-.7-.2-1.1v-8.5.2h0Z"/>
        <path class="cls-16" d="M193.7,263v-1.5h4.4v1.5h-4.4Z"/>
      </g>
      <g>
        <g>
          <path class="cls-16" d="M463.7,234.8c1.4,1.8,2,3.7,2,6,0,3.3-1.1,5.9-3.4,7.8-2.3,1.9-5.5,2.8-9.6,2.8h-19.3v-39h18.6c4,0,7.1.9,9.4,2.7s3.4,4.2,3.4,7.5-.6,4.2-1.8,5.8c-1.2,1.5-2.8,2.6-4.8,3.2,2.3.5,4.1,1.6,5.4,3.4h0ZM444.2,228h5.4c2.8,0,4-1.1,4-3.4s-1.4-3.5-4-3.5h-5.4v6.9ZM454.6,239.3c0-1.2-.3-2.1-1.1-2.7-.7-.6-1.7-1-3.1-1h-6.2v7h6.3c2.8,0,4-1.1,4-3.4Z"/>
          <path class="cls-16" d="M485.7,221.7c1.7-1.1,3.6-1.5,5.6-1.5v11.5h-3c-2.3,0-4.1.5-5.3,1.4-1.1.9-1.7,2.5-1.7,4.8v13.5h-10.9v-30.9h10.9v5.4c1.2-1.8,2.7-3.2,4.5-4.2h0Z"/>
          <path class="cls-16" d="M496,216.1c-1.1-1.1-1.7-2.3-1.7-4s.6-3,1.7-4,2.7-1.6,4.6-1.6,3.4.6,4.5,1.6,1.7,2.4,1.7,4-.6,2.9-1.7,4c-1.1,1.1-2.7,1.5-4.5,1.5s-3.5-.5-4.6-1.5ZM506,220.4v30.9h-10.9v-30.9h10.9Z"/>
          <path class="cls-16" d="M512.4,227.6c1.3-2.4,3.2-4.2,5.5-5.5s5.1-1.9,8.2-1.9,7.3,1.1,10,3.2c2.7,2.2,4.5,5.2,5.2,9h-11.5c-.6-2-1.9-3-3.9-3s-2.4.6-3.2,1.7c-.8,1.1-1.2,2.8-1.2,4.9s.4,3.8,1.2,4.9,1.9,1.7,3.2,1.7,3.2-1,3.9-3h11.5c-.8,3.8-2.5,6.8-5.2,9s-6,3.2-10,3.2-5.8-.6-8.2-1.9c-2.3-1.3-4.2-3.2-5.5-5.5-1.3-2.4-2-5.2-2-8.4s.6-6,2-8.4h0Z"/>
          <path class="cls-16" d="M565,251.5l-8.6-12.7v12.7h-10.9v-40.9h10.9v22l8.6-12.1h13l-12.2,15.5,12.4,15.4h-13.2,0Z"/>
          <path class="cls-16" d="M614.6,220.4l-19.7,45.7h-11.7l7.4-16-12.7-29.6h12.1l6.5,17.6,6.3-17.6h11.9Z"/>
          <path class="cls-16" d="M634.2,229.5h-4.9v21.9h-10.9v-21.9h-3.4v-9h3.4v-.2c0-4,1.1-7,3.5-9.2s5.7-3.2,10-3.2,1.5,0,2,0v9.2h-1.2c-1.2,0-2,.2-2.6.8s-.9,1.4-1,2.6h4.9v9h0Z"/>
          <path class="cls-16" d="M638.9,216.1c-1.1-1.1-1.7-2.3-1.7-4s.6-3,1.7-4,2.7-1.6,4.6-1.6,3.4.6,4.5,1.6,1.7,2.4,1.7,4-.6,2.9-1.7,4-2.7,1.5-4.5,1.5-3.5-.5-4.6-1.5ZM648.9,220.4v30.9h-10.9v-30.9h10.9Z"/>
          <path class="cls-16" d="M655.7,228.1c-1.1-1.1-1.7-2.3-1.7-4s.6-3,1.7-4,2.7-1.6,4.6-1.6,3.4.6,4.5,1.6,1.7,2.4,1.7,4-.6,2.9-1.7,4c-1.1,1.1-2.7,1.6-4.5,1.6s-3.5-.5-4.6-1.5h0ZM655.7,250.3c-1.1-1.1-1.7-2.3-1.7-4s.6-3,1.7-4,2.7-1.6,4.6-1.6,3.4.6,4.5,1.6,1.7,2.4,1.7,4-.6,2.9-1.7,4-2.7,1.6-4.5,1.6-3.5-.5-4.6-1.5h0Z"/>
        </g>
        <g>
          <path class="cls-31" d="M597.6,107.4c-4.5-4.5-8.8-9.2-13.7-13.5-4.7-4.1-10.5-5.5-16.5-3.3-3,1.1-5.3.8-7.7-1-8.2-5.7-17.3-7-26.8-6.2-26.2,2.3-42.5,34.7-28.6,57,1.1,1.8,2.2,4.1,4.9,2.8,2.6-1.5,1.9-3.7.8-5.9-2.3-4.5-4.1-9.1-4.3-14.1-.2-12.1,4.9-21.8,14.7-28.4,10.4-6.7,21.7-6.6,32.9-1.4,4.9,2.2,4.9,3.6,1.1,7.5-8,8-16,16-24.1,24.1-12.1,12.1-24.5,24.5-36.6,36.6s-2.9,3.2-1.1,5.1c1.8,1.9,3.9,1.2,5.7-.4,2.1-2.1,4.1-4.1,6.3-6.2,5.3-5.3,11-6.3,17.5-3.2.2,0,.6.4.8.4,5.1,1.2,7.5,5.8,10.8,9.1,1.2,1.2,1,2.2-.4,3-1.6,1-1.9,2.6-1.2,4.3s2.3,1.8,3.7,1.8h15.7c2.3,0,5.5.2,5.3-3.3,0-3.5-3-3.6-5.5-3.3-4.9.6-8.3-1.4-10.9-5.1-.7-.8-1.9-1.6-1.5-2.9.6-1.4,1.9-1,3-1,6.5-.6,12.6-2.6,18-6.3,7.9-5.7,13.3-13.3,16-22.5.6-2.1,1.4-4.9-1.8-5.8-3.2-1-4.3,1.5-4.9,4,0,.4,0,1-.2,1.5-6.5,21-29.4,28.7-47.8,18.4-2.9-1.6-2.6-3.2-.6-5.3,3-3,5.5-.2,8,.7,11.7,4.5,26.5-1.8,30.2-13,.6-1.6,1.1-3.3-.4-4.9-4.5,9.2-10.8,13.9-17.7,13.1,3-2.9,6.9-4.9,8.2-9.1-2.2,0-3.3,1.4-4.5,2.3-3.5,2.5-7.2,4-11.4,4.1-1.2,0-2.9.6-3.5-1.1-.4-1.2.8-2.1,1.6-2.8,5.7-5.7,11.3-11.4,17.1-17.1,3.5-3.5,7-3.5,10.6,0,8.7,8.7,18.1,9,26.9.7,2.8-2.6,5.5-4.5,9.6-4.3,1.2,0,2.8,0,3.5-1.2.8-1.6-.2-2.9-1.4-3.9h0v.2h.2ZM586.6,107.3c-1.1,4.9-13.4,10.4-18.2,8.2-3.7-1.6-6.1-4.9-8.8-7.7s-.7-1.4-.4-2.2c1.2-3.5,9.4-9,13.4-9,6.7,0,9.6,5.5,13.7,9.4.2.2.4,1,.2,1.4h.2Z"/>
          <path class="cls-30" d="M574.8,109.2c-2.1,0-3.2-1.1-3.3-2.9,0-1.6,1-2.8,2.6-2.9,1.9-.2,3.2.8,3.3,2.6,0,1.8-1.1,2.9-2.6,3.3h0v-.2h0Z"/>
        </g>
      </g>
    </g>
  </g>
  <g>
    <path class="cls-16" d="M269.8,153.1v1.5c0,4.3-1.3,7-4.3,8.4h0c3.5,1.5,4.9,4.6,4.9,9.1v3.4c0,6.5-3.4,10-10,10h-10.4v-42h10c6.8,0,9.8,3.2,9.8,9.7ZM256.7,149.5v11.1h2.6c2.5,0,4-1.1,4-4.4v-2.3c0-3-1-4.3-3.4-4.3h-3.2ZM256.7,166.6v12.9h3.8c2.2,0,3.4-1,3.4-4.1v-3.7c0-3.9-1.3-5.1-4.3-5.1h-2.9Z"/>
    <path class="cls-16" d="M281.1,161.2h9.1v6h-9.1v12.3h11.4v6h-18v-42h18v6h-11.4v11.7Z"/>
    <path class="cls-16" d="M315.7,169.8v5.6c0,6.7-3.4,10.6-9.8,10.6s-9.8-3.8-9.8-10.6v-21.8c0-6.7,3.4-10.6,9.8-10.6s9.8,3.8,9.8,10.6v4.1h-6.2v-4.5c0-3-1.3-4.1-3.4-4.1s-3.4,1.1-3.4,4.1v22.7c0,3,1.3,4.1,3.4,4.1s3.4-1.1,3.4-4.1v-6h6.2Z"/>
    <path class="cls-16" d="M319.2,153.5c0-6.7,3.5-10.6,10-10.6s10,3.8,10,10.6v21.8c0,6.7-3.5,10.6-10,10.6s-10-3.8-10-10.6v-21.8ZM325.8,175.8c0,3,1.3,4.1,3.4,4.1s3.4-1.1,3.4-4.1v-22.7c0-3-1.3-4.1-3.4-4.1s-3.4,1.1-3.4,4.1v22.7Z"/>
    <path class="cls-16" d="M357.4,173.3h.1l4.4-29.8h9.2v42h-6.2v-30.1h-.1l-4.4,30.1h-6.2l-4.8-29.7h-.1v29.7h-5.8v-42h9.2l4.8,29.8Z"/>
    <path class="cls-16" d="M382.5,161.2h9.1v6h-9.1v12.3h11.4v6h-18v-42h18v6h-11.4v11.7Z"/>
    <path class="cls-16" d="M406.9,143c6.4,0,9.7,3.8,9.7,10.6v1.3h-6.2v-1.7c0-3-1.2-4.1-3.3-4.1s-3.3,1.1-3.3,4.1,1.3,5.3,5.6,9.1c5.5,4.9,7.3,8.3,7.3,13.1s-3.4,10.6-9.8,10.6-9.8-3.8-9.8-10.6v-2.6h6.2v3c0,3,1.3,4.1,3.4,4.1s3.4-1.1,3.4-4.1-1.3-5.3-5.6-9.1c-5.5-4.9-7.3-8.3-7.3-13.1s3.3-10.6,9.7-10.6Z"/>
  </g>
</svg>